<svg xmlns="http://www.w3.org/2000/svg" width="48" height="48" viewBox="0 0 48 48">
  <rect width="48" height="48" rx="10" fill="#0A0A0A"/>
  <!-- Net pattern -->
  <g stroke="#444" stroke-width="0.6" fill="none" opacity="0.4">
    <line x1="2" y1="38" x2="16" y2="6"/>
    <line x1="8" y1="40" x2="22" y2="6"/>
    <line x1="14" y1="40" x2="28" y2="6"/>
    <line x1="2" y1="6" x2="16" y2="38"/>
    <line x1="8" y1="6" x2="22" y2="40"/>
    <line x1="14" y1="6" x2="28" y2="40"/>
  </g>
  <!-- Letter A -->
  <path d="M17,6 L5,42 L11,42 L17,22 L22,42 L28,42 Z"
        fill="#C41E3A" stroke="#4A0D15" stroke-width="1.2" stroke-linejoin="round"/>
  <!-- Letter V -->
  <path d="M22,6 L30,42 L36,42 L46,6 L40,6 L33,34 L28,6 Z"
        fill="#C41E3A" stroke="#4A0D15" stroke-width="1.2" stroke-linejoin="round"/>
  <!-- Volleyball -->
  <circle cx="39" cy="16" r="7" fill="#FFFFFF" stroke="#333" stroke-width="0.8"/>
  <path d="M39,9 Q35,16 39,23" fill="none" stroke="#444" stroke-width="0.6"/>
  <path d="M39,9 Q43,16 39,23" fill="none" stroke="#444" stroke-width="0.6"/>
  <path d="M32,16 Q39,13 46,16" fill="none" stroke="#444" stroke-width="0.6"/>
  <path d="M32,16 Q39,19 46,16" fill="none" stroke="#444" stroke-width="0.6"/>
</svg>
