<?xml version="1.0" encoding="UTF-8"?>
<svg version="1.1" xmlns="http://www.w3.org/2000/svg" width="250" height="250">
<path d="M0 0 C2.07651235 -0.0096146 4.15199563 -0.0405781 6.22827148 -0.07226562 C21.51117983 -0.19793928 21.51117983 -0.19793928 27.60522461 4.99414062 C28.2877832 5.88939453 28.2877832 5.88939453 28.98413086 6.80273438 C29.4572168 7.40214844 29.93030273 8.0015625 30.41772461 8.61914062 C33.55767932 13.12807213 33.11958992 17.93213085 32.54663086 23.24023438 C30.07564319 32.17124809 26.11245059 38.88819479 18.12084961 43.70117188 C12.08008696 46.87280143 6.4428406 49.24023438 -0.45336914 49.24023438 C-0.08985352 50.0476709 0.27366211 50.85510742 0.64819336 51.68701172 C1.99296427 54.67869598 3.33439914 57.67182911 4.67358398 60.66601562 C5.25427973 61.96251306 5.83630544 63.25841564 6.41967773 64.55371094 C7.25715484 66.41382166 8.08985224 68.27600732 8.92163086 70.13867188 C9.42436523 71.25935059 9.92709961 72.3800293 10.44506836 73.53466797 C11.54663086 76.24023438 11.54663086 76.24023438 11.54663086 78.24023438 C0.65663086 78.24023438 -10.23336914 78.24023438 -21.45336914 78.24023438 C-24.20680664 72.08367187 -24.20680664 72.08367187 -27.01586914 65.80273438 C-27.59925049 64.5272876 -28.18263184 63.25184082 -28.78369141 61.93774414 C-31.63128815 55.38699469 -33.63774873 50.24239919 -31.45336914 43.24023438 C-29.75660918 39.02418538 -27.62055638 35.25183628 -25.45336914 31.24023438 C-13.07836914 30.74523437 -13.07836914 30.74523437 -0.45336914 30.24023438 C1.52663086 25.78523438 1.52663086 25.78523438 3.54663086 21.24023438 C-4.37336914 21.24023438 -12.29336914 21.24023438 -20.45336914 21.24023438 C-19.62740155 16.28442883 -18.4588722 12.42592638 -16.45336914 7.92773438 C-16.18008789 7.29544922 -15.90680664 6.66316406 -15.62524414 6.01171875 C-12.21562833 -1.78527035 -8.07873558 0.02262687 0 0 Z " fill="#FFFFFF" transform="translate(154.453369140625,85.759765625)"/>
<path d="M0 0 C1.29349365 0.00523682 2.5869873 0.01047363 3.91967773 0.01586914 C4.9496714 0.01799156 4.9496714 0.01799156 6.00047302 0.02015686 C8.20144949 0.0257706 10.40232557 0.03832532 12.60327148 0.05102539 C14.09220231 0.05603863 15.58113473 0.06060184 17.07006836 0.06469727 C20.72700223 0.07574446 24.38387707 0.09301826 28.04077148 0.11352539 C27.48186743 4.1469067 26.60754336 7.56680646 24.97436523 11.29321289 C24.61141357 12.13094238 24.24846191 12.96867187 23.87451172 13.83178711 C23.41375244 14.87351074 22.95299316 15.91523437 22.47827148 16.98852539 C21.01389648 20.32977539 19.54952148 23.67102539 18.04077148 27.11352539 C7.48077148 27.11352539 -3.07922852 27.11352539 -13.95922852 27.11352539 C-13.19462714 23.29051849 -12.43400237 20.55812898 -10.92797852 17.06665039 C-10.5296582 16.13981445 -10.13133789 15.21297852 -9.72094727 14.25805664 C-9.30458008 13.30286133 -8.88821289 12.34766602 -8.45922852 11.36352539 C-8.04286133 10.39286133 -7.62649414 9.42219727 -7.19750977 8.42211914 C-3.61772017 0.13878722 -3.61772017 0.13878722 0 0 Z " fill="#FFFFFF" transform="translate(108.959228515625,85.886474609375)"/>
<path d="M0 0 C10.23 0 20.46 0 31 0 C30.23539862 3.8230069 29.47477386 6.55539641 27.96875 10.046875 C27.57042969 10.97371094 27.17210937 11.90054688 26.76171875 12.85546875 C26.34535156 13.81066406 25.92898437 14.76585937 25.5 15.75 C24.87544922 17.20599609 24.87544922 17.20599609 24.23828125 18.69140625 C21.14043257 25.85956743 21.14043257 25.85956743 20 27 C17.70848583 27.08790975 15.41427476 27.10694038 13.12109375 27.09765625 C12.09110008 27.09553383 12.09110008 27.09553383 11.04029846 27.09336853 C8.83932199 27.08775479 6.63844591 27.07520007 4.4375 27.0625 C2.94856917 27.05748676 1.45963676 27.05292355 -0.02929688 27.04882812 C-3.68623075 27.03778093 -7.34310558 27.02050713 -11 27 C-10.38333953 23.25577927 -9.30434425 20.13978312 -7.71484375 16.69921875 C-7.31128662 15.81838623 -6.90772949 14.93755371 -6.49194336 14.0300293 C-5.97897705 12.92699463 -5.46601074 11.82395996 -4.9375 10.6875 C-3.308125 7.160625 -1.67875 3.63375 0 0 Z " fill="#EE4948" transform="translate(85,137)"/>
<path d="M0 0 C19.47 0 38.94 0 59 0 C58.17333456 4.1333272 57.24320156 7.00008967 55.5 10.75 C54.83484375 12.19632813 54.83484375 12.19632813 54.15625 13.671875 C53 16 53 16 52 17 C49.78144736 17.08783542 47.56011504 17.10694609 45.33984375 17.09765625 C44.34314415 17.09553383 44.34314415 17.09553383 43.3263092 17.09336853 C41.19666101 17.08775518 39.06711661 17.07520054 36.9375 17.0625 C35.49674631 17.05748671 34.05599097 17.05292351 32.61523438 17.04882812 C29.07678898 17.03778145 25.53840461 17.02050792 22 17 C22 16.34 22 15.68 22 15 C28.6 14.34 35.2 13.68 42 13 C34.43701149 11.76690405 27.01658537 10.74922307 19.36328125 10.34375 C17 10 17 10 15 8 C21.29802047 6.74873765 27.61102577 6.63916757 34.0078125 6.39453125 C35.31105469 6.33845703 35.31105469 6.33845703 36.640625 6.28125 C37.42985352 6.25095703 38.21908203 6.22066406 39.03222656 6.18945312 C41.07626791 6.11163186 41.07626791 6.11163186 43 5 C28.81 3.68 14.62 2.36 0 1 C0 0.67 0 0.34 0 0 Z " fill="#EE5B59" transform="translate(65,117)"/>
<path d="M0 0 C9.9 0 19.8 0 30 0 C30 0.33 30 0.66 30 1 C29.17274414 1.01458252 28.34548828 1.02916504 27.49316406 1.04418945 C23.74497119 1.1186586 19.99767003 1.2153246 16.25 1.3125 C14.94804687 1.33505859 13.64609375 1.35761719 12.3046875 1.38085938 C10.42910156 1.4340332 10.42910156 1.4340332 8.515625 1.48828125 C7.36352539 1.51446533 6.21142578 1.54064941 5.02441406 1.56762695 C1.78134322 2.03125938 0.37863165 2.80767749 -2 5 C-1.34 3.35 -0.68 1.7 0 0 Z " fill="#FFFFFF" transform="translate(142,86)"/>
<path d="M0 0 C5.94 0 11.88 0 18 0 C18 0.33 18 0.66 18 1 C11.69661213 2.3792223 6.3503077 3.41117949 0 2 C0 1.34 0 0.68 0 0 Z " fill="#EC4D4A" transform="translate(87,117)"/>
<path d="M0 0 C0 0.33 0 0.66 0 1 C-1.65 1 -3.3 1 -5 1 C-5 1.66 -5 2.32 -5 3 C-8.375 3.125 -8.375 3.125 -12 3 C-12.66 2.34 -13.32 1.68 -14 1 C-9.23692563 0.04738513 -4.8333472 -0.08333357 0 0 Z " fill="#F07A77" transform="translate(94,124)"/>
<path d="M0 0 C3.3 0.33 6.6 0.66 10 1 C10 1.33 10 1.66 10 2 C4.94997778 3.03590199 0.12583611 3.10251672 -5 3 C-5 2.67 -5 2.34 -5 2 C-3.35 1.67 -1.7 1.34 0 1 C0 0.67 0 0.34 0 0 Z " fill="#FBDFDE" transform="translate(102,121)"/>
</svg>
